<?xml version="1.0" encoding="iso-8859-1"?>
<!-- Generator: Adobe Illustrator 19.0.0, SVG Export Plug-In . SVG Version: 6.00 Build 0)  -->
<svg xmlns="http://www.w3.org/2000/svg" xmlns:xlink="http://www.w3.org/1999/xlink" version="1.1" id="Capa_1" x="0px" y="0px" viewBox="0 0 363.985 363.985" style="enable-background:new 0 0 363.985 363.985;" xml:space="preserve" width="512px" height="512px">
<g>
	<g>
		<path d="M349.847,138.295v0.16c0,0,0-0.48-0.48-0.64L185.607,6.535c-2.196-1.766-5.324-1.766-7.52,0l-163.84,131.28    c-0.205,0.225-0.392,0.466-0.56,0.72c-9.054,11.099-13.899,25.038-13.68,39.36v124.88c0,27.04,14.72,56,56,56h251.92    c27.04,0,56-14.72,56-56v-124.96C364.592,163.306,359.536,149.115,349.847,138.295z M181.847,18.935l153.52,123.04l-153.52,99.52    l-36.4-24c-0.643-0.586-1.408-1.023-2.24-1.28l-114.88-74.24L181.847,18.935z M11.847,302.775v-124.96    c-0.087-9.591,2.519-19.015,7.52-27.2l112,72.64l-107.76,112C15.731,326.299,11.53,314.697,11.847,302.775z M307.607,346.695    H55.767c-7.595,0.105-15.116-1.509-22-4.72l108.08-112l36.72,24c1.993,1.301,4.567,1.301,6.56,0l36.72-24l108,112    C322.857,345.123,315.273,346.732,307.607,346.695z M351.847,177.415l-0.08,125.36c0.712,11.825-3.518,23.414-11.68,32    l-107.76-112l112-72.56C349.582,158.287,352.209,167.789,351.847,177.415z" fill="#FFFFFF"/>
	</g>
</g>
<g>
</g>
<g>
</g>
<g>
</g>
<g>
</g>
<g>
</g>
<g>
</g>
<g>
</g>
<g>
</g>
<g>
</g>
<g>
</g>
<g>
</g>
<g>
</g>
<g>
</g>
<g>
</g>
<g>
</g>
</svg>
